<?xml version="1.0" encoding="UTF-8"?>
<svg xmlns="http://www.w3.org/2000/svg" xmlns:xlink="http://www.w3.org/1999/xlink" width="60px" height="60px" viewBox="0 0 60 60" version="1.1">
<g id="surface1">
<path style=" stroke:none;fill-rule:nonzero;fill:rgb(49, 181, 204);fill-opacity:1;" d="M 27.304688 0.117188 C 21.515625 0.679688 16.171875 2.8125 11.484375 6.421875 C 9.199219 8.179688 6.234375 11.484375 4.523438 14.179688 C 3.785156 15.339844 2.34375 18.292969 1.828125 19.699219 C 1.253906 21.269531 0.632812 23.683594 0.328125 25.546875 C -0.0351562 27.832031 -0.0351562 32.167969 0.328125 34.453125 C 0.855469 37.6875 1.6875 40.289062 3.105469 43.183594 C 4.652344 46.335938 6.257812 48.574219 8.835938 51.164062 C 11.425781 53.742188 13.664062 55.347656 16.816406 56.894531 C 19.710938 58.3125 22.3125 59.144531 25.546875 59.671875 C 27.832031 60.035156 32.167969 60.035156 34.453125 59.671875 C 37.6875 59.144531 40.289062 58.3125 43.183594 56.894531 C 46.335938 55.347656 48.574219 53.742188 51.164062 51.164062 C 53.742188 48.574219 55.347656 46.335938 56.894531 43.183594 C 57.925781 41.085938 58.441406 39.714844 59.003906 37.605469 C 59.742188 34.792969 59.917969 33.257812 59.917969 30 C 59.917969 26.742188 59.742188 25.207031 59.003906 22.394531 C 58.441406 20.285156 57.925781 18.914062 56.894531 16.816406 C 55.347656 13.664062 53.742188 11.425781 51.164062 8.835938 C 48.574219 6.257812 46.335938 4.652344 43.183594 3.105469 C 40.300781 1.6875 37.628906 0.84375 34.511719 0.351562 C 32.789062 0.0820312 28.945312 -0.046875 27.304688 0.117188 Z M 32.789062 4.816406 C 38.507812 5.4375 43.734375 7.980469 47.882812 12.117188 C 52.746094 16.980469 55.3125 23.167969 55.3125 30 C 55.3125 36.832031 52.746094 43.019531 47.882812 47.882812 C 43.019531 52.746094 36.832031 55.3125 30 55.3125 C 23.167969 55.3125 16.980469 52.746094 12.117188 47.882812 C 7.253906 43.019531 4.6875 36.832031 4.6875 30 C 4.6875 23.167969 7.253906 16.980469 12.117188 12.117188 C 16.207031 8.027344 21.492188 5.449219 27.070312 4.816406 C 28.359375 4.675781 31.476562 4.664062 32.789062 4.816406 Z M 32.789062 4.816406 "/>
<path style=" stroke:none;fill-rule:nonzero;fill:rgb(49, 181, 204);fill-opacity:1;" d="M 29.414062 21 C 28.921875 21.105469 28.488281 21.503906 22.757812 27.222656 C 19.382812 30.585938 16.546875 33.480469 16.453125 33.65625 C 16.113281 34.3125 16.113281 34.96875 16.464844 35.683594 C 16.992188 36.785156 18.011719 37.230469 19.21875 36.914062 C 19.699219 36.785156 20.25 36.28125 24.867188 31.664062 L 30 26.554688 L 35.0625 31.605469 C 40.40625 36.925781 40.652344 37.148438 41.660156 37.148438 C 43.300781 37.148438 44.414062 35.402344 43.722656 33.925781 C 43.570312 33.609375 41.484375 31.453125 37.3125 27.28125 C 32.085938 22.089844 31.042969 21.105469 30.703125 21.035156 C 30.480469 21 30.210938 20.941406 30.117188 20.917969 C 30.023438 20.90625 29.707031 20.941406 29.414062 21 Z M 29.414062 21 "/>
</g>
</svg>
