<?xml version="1.0" encoding="UTF-8"?>
<svg xmlns="http://www.w3.org/2000/svg" xmlns:xlink="http://www.w3.org/1999/xlink" width="60px" height="60px" viewBox="0 0 60 60" version="1.1">
<g id="surface1">
<path style=" stroke:none;fill-rule:nonzero;fill:rgb(49, 181, 204);fill-opacity:1;" d="M 13.699219 2.039062 C 11.824219 2.753906 8.332031 6.199219 5.085938 10.511719 C 3.796875 12.234375 2.789062 13.78125 2.261719 14.882812 L 1.828125 15.75 L 1.96875 16.933594 C 3.046875 26.25 10.804688 38.425781 21.210938 47.121094 C 28.558594 53.25 36.480469 57.222656 43.007812 58.019531 C 44.085938 58.160156 44.144531 58.148438 44.824219 57.878906 C 47.589844 56.742188 54.128906 51.492188 56.601562 48.410156 C 58.171875 46.453125 58.40625 45.503906 57.679688 44.027344 C 57.1875 43.019531 56.660156 42.5625 53.871094 40.6875 C 48.210938 36.867188 44.15625 34.804688 42.339844 34.804688 C 40.992188 34.804688 40.230469 35.367188 38.027344 37.957031 C 37.253906 38.859375 36.550781 39.609375 36.46875 39.609375 C 36.210938 39.609375 34.3125 38.835938 33.175781 38.273438 C 29.15625 36.246094 25.78125 33.269531 23.296875 29.53125 C 22.371094 28.148438 21.058594 25.558594 20.636719 24.304688 L 20.355469 23.472656 L 20.8125 23.0625 C 21.058594 22.839844 21.820312 22.183594 22.5 21.597656 C 24.597656 19.816406 25.089844 19.125 25.171875 17.835938 C 25.207031 17.296875 25.160156 16.898438 24.960938 16.277344 C 24.597656 15.164062 23.332031 12.585938 22.148438 10.605469 C 20.8125 8.355469 17.929688 4.019531 17.273438 3.292969 C 16.324219 2.238281 14.683594 1.664062 13.699219 2.039062 Z M 13.699219 2.039062 "/>
</g>
</svg>
