<svg display="none" xmlns="http://www.w3.org/2000/svg">
  <symbol id="arrow-down">
    <svg class="t-cover__arrow-svg" width="40" height="20"><path d="M19.208 18.592a.995.995 0 0 1-.673-.261L.327 1.74A1 1 0 0 1 1.674.261L19.208 16.24 36.743.261a1 1 0 0 1 1.348 1.479l-18.21 16.592a.999.999 0 0 1-.673.26z"/></svg>
  </symbol>

  <symbol id="phone-call">
    <svg class="phone-call__arrow" xmlns="http://www.w3.org/2000/svg" xmlns:xlink="http://www.w3.org/1999/xlink" width="60px" height="60px" viewBox="0 0 60 60" version="1.1">
      <g id="surface1">
        <path style=" stroke:none;fill-rule:nonzero;fill:rgb(49, 181, 204);fill-opacity:1;"
        d="M 13.699219 2.039062 C 11.824219 2.753906 8.332031 6.199219 5.085938 10.511719 C 3.796875 12.234375 2.789062 13.78125 2.261719 14.882812 L 1.828125 15.75 L 1.96875 16.933594 C 3.046875 26.25 10.804688 38.425781 21.210938 47.121094 C 28.558594 53.25 36.480469 57.222656 43.007812 58.019531 C 44.085938 58.160156 44.144531 58.148438 44.824219 57.878906 C 47.589844 56.742188 54.128906 51.492188 56.601562 48.410156 C 58.171875 46.453125 58.40625 45.503906 57.679688 44.027344 C 57.1875 43.019531 56.660156 42.5625 53.871094 40.6875 C 48.210938 36.867188 44.15625 34.804688 42.339844 34.804688 C 40.992188 34.804688 40.230469 35.367188 38.027344 37.957031 C 37.253906 38.859375 36.550781 39.609375 36.46875 39.609375 C 36.210938 39.609375 34.3125 38.835938 33.175781 38.273438 C 29.15625 36.246094 25.78125 33.269531 23.296875 29.53125 C 22.371094 28.148438 21.058594 25.558594 20.636719 24.304688 L 20.355469 23.472656 L 20.8125 23.0625 C 21.058594 22.839844 21.820312 22.183594 22.5 21.597656 C 24.597656 19.816406 25.089844 19.125 25.171875 17.835938 C 25.207031 17.296875 25.160156 16.898438 24.960938 16.277344 C 24.597656 15.164062 23.332031 12.585938 22.148438 10.605469 C 20.8125 8.355469 17.929688 4.019531 17.273438 3.292969 C 16.324219 2.238281 14.683594 1.664062 13.699219 2.039062 Z M 13.699219 2.039062 " />
      </g>
    </svg>
  </symbol>

  <symbol id="methods-arrow">
    <svg class="t959__card-arrow" width="14" height="24" fill="none" xmlns="http://www.w3.org/2000/svg"><path d="m1 .994 11 11-11 11"/>
    </svg>
  </symbol>

  <symbol id="facebook">
    <svg class="contact__info-social-icon" width="30px" height="30px" viewBox="0 0 100 100"
  xmlns="http://www.w3.org/2000/svg">
      <path fill-rule="evenodd" clip-rule="evenodd"
        d="M50 100c27.614 0 50-22.386 50-50S77.614 0 50 0 0 22.386 0 50s22.386 50 50 50Zm3.536-76.983c-2.883.08-5.925.774-8.074 2.816-1.775 1.641-2.67 4.03-2.87 6.419-.061 1.708-.053 3.42-.044 5.133.007 1.284.013 2.567-.01 3.848-.789.006-1.58.005-2.372.003a190.732 190.732 0 0 0-3.166.01l.003 3.071c.003 2.053.006 4.109-.003 6.165 1.053.015 2.11.013 3.166.01.792 0 1.583-.002 2.372.003.018 4.076.015 8.15.012 12.225-.005 5.094-.009 10.187.029 15.28 2.165-.014 4.327-.012 6.489-.01 1.621.002 3.243.003 4.868-.003.013-4.584.01-9.165.007-13.746-.004-4.58-.007-9.161.006-13.746 1.093-.005 2.185-.004 3.278-.002 1.456.002 2.913.004 4.37-.011.453-3.07.84-6.166 1.053-9.275-1.44-.007-2.882-.007-4.323-.007-1.442 0-2.883 0-4.324-.007L54 39.582c-.002-1.612-.005-3.223.015-4.835.227-1.241 1.508-2.189 2.75-2.108h5.898c.013-3.217.013-6.42 0-9.636l-2.282-.001a694.454 694.454 0 0 0-6.846.015Z">
      </path>
    </svg>
  </symbol>

  <symbol id="telegram">
    <svg class="contact__info-social-icon" width="30px" height="30px" viewBox="0 0 100 100" xmlns="http://www.w3.org/2000/svg">
      <path fill-rule="evenodd" clip-rule="evenodd"
        d="M50 100c27.614 0 50-22.386 50-50S77.614 0 50 0 0 22.386 0 50s22.386 50 50 50Zm21.977-68.056c.386-4.38-4.24-2.576-4.24-2.576-3.415 1.414-6.937 2.85-10.497 4.302-11.04 4.503-22.444 9.155-32.159 13.734-5.268 1.932-2.184 3.864-2.184 3.864l8.351 2.577c3.855 1.16 5.91-.129 5.91-.129l17.988-12.238c6.424-4.38 4.882-.773 3.34.773l-13.49 12.882c-2.056 1.804-1.028 3.35-.129 4.123 2.55 2.249 8.82 6.364 11.557 8.16.712.467 1.185.778 1.292.858.642.515 4.111 2.834 6.424 2.319 2.313-.516 2.57-3.479 2.57-3.479l3.083-20.226c.462-3.511.993-6.886 1.417-9.582.4-2.546.705-4.485.767-5.362Z">
      </path>
    </svg>
  </symbol>

  <symbol id="viber">
    <svg class="contact__info-social-icon" width="30px" height="30px" xmlns="http://www.w3.org/2000/svg" viewBox="0 0 30 30">
      <path d="M 13.601562 0.0585938 C 5.75 0.820312 -0.234375 7.578125 0.015625 15.410156 C 0.09375 17.6875 0.585938 19.664062 1.585938 21.671875 C 3.046875 24.617188 5.378906 26.945312 8.328125 28.414062 C 13.101562 30.789062 18.75 30.460938 23.203125 27.550781 C 24.945312 26.414062 26.59375 24.726562 27.71875 22.933594 C 28.15625 22.253906 28.796875 20.929688 29.09375 20.132812 C 29.390625 19.324219 29.734375 17.929688 29.859375 17.023438 C 29.992188 16.101562 30.011719 13.96875 29.894531 13.15625 C 29.546875 10.722656 28.773438 8.648438 27.492188 6.714844 C 26.953125 5.894531 26.40625 5.226562 25.648438 4.460938 C 23.308594 2.097656 20.402344 0.632812 17.078125 0.140625 C 16.367188 0.0351562 14.351562 -0.0117188 13.601562 0.0585938 Z M 17.546875 5.765625 C 18.773438 5.914062 19.6875 6.085938 20.117188 6.269531 C 21.578125 6.882812 22.9375 8.234375 23.492188 9.621094 C 23.890625 10.625 24.148438 13.125 24.03125 14.871094 C 23.941406 16.140625 23.710938 17.53125 23.5 18.082031 C 23.039062 19.28125 21.742188 20.648438 20.476562 21.28125 C 19.523438 21.761719 17.671875 22.03125 15.175781 22.066406 L 13.679688 22.085938 L 12.597656 23.195312 C 11.679688 24.140625 11.476562 24.316406 11.296875 24.34375 C 10.882812 24.421875 10.484375 24.1875 10.371094 23.78125 C 10.335938 23.671875 10.3125 23.140625 10.3125 22.585938 L 10.3125 21.59375 L 9.9375 21.457031 C 9.738281 21.386719 9.359375 21.195312 9.105469 21.039062 C 7.609375 20.117188 6.5625 18.703125 6.273438 17.226562 C 5.84375 15.007812 5.84375 12.617188 6.273438 10.460938 C 6.640625 8.660156 8.261719 6.835938 10.054688 6.203125 C 10.609375 6.011719 12.257812 5.757812 13.59375 5.660156 C 14.261719 5.613281 16.816406 5.683594 17.546875 5.765625 Z M 17.546875 5.765625 "/>
      <path d="M 13.390625 7.304688 C 12.011719 7.417969 10.820312 7.625 10.398438 7.816406 C 9.414062 8.265625 8.378906 9.304688 8.027344 10.1875 C 7.875 10.582031 7.699219 11.585938 7.609375 12.550781 C 7.484375 14.03125 7.664062 16.4375 7.976562 17.367188 C 8.308594 18.351562 9.550781 19.605469 10.535156 19.953125 C 10.6875 20.003906 10.851562 20.070312 10.898438 20.09375 C 10.976562 20.132812 10.984375 20.402344 11.003906 21.878906 L 11.015625 23.613281 L 11.148438 23.613281 C 11.242188 23.613281 11.71875 23.164062 12.820312 22.03125 L 14.367188 20.449219 L 15.226562 20.449219 C 16.796875 20.449219 19.007812 20.167969 19.605469 19.898438 C 20.53125 19.46875 21.46875 18.554688 21.890625 17.664062 C 22.253906 16.910156 22.484375 15.015625 22.421875 13.328125 C 22.382812 12.222656 22.207031 10.886719 22.023438 10.347656 C 21.6875 9.34375 20.484375 8.132812 19.429688 7.742188 C 19.070312 7.609375 17.871094 7.417969 16.84375 7.328125 C 16.207031 7.273438 13.957031 7.257812 13.390625 7.304688 Z M 16.085938 9.34375 C 17.3125 9.664062 18.445312 10.570312 18.984375 11.6875 C 19.265625 12.269531 19.371094 12.667969 19.460938 13.484375 C 19.535156 14.179688 19.507812 14.296875 19.242188 14.296875 C 19.054688 14.296875 19.007812 14.171875 18.960938 13.59375 C 18.882812 12.609375 18.640625 11.929688 18.132812 11.273438 C 17.445312 10.375 16.484375 9.867188 15.269531 9.757812 C 14.984375 9.726562 14.777344 9.671875 14.695312 9.609375 C 14.566406 9.507812 14.566406 9.503906 14.671875 9.34375 C 14.777344 9.179688 14.78125 9.179688 15.257812 9.21875 C 15.515625 9.242188 15.890625 9.296875 16.085938 9.34375 Z M 12.203125 9.84375 C 12.515625 10.089844 13.488281 11.492188 13.570312 11.800781 C 13.632812 12.054688 13.488281 12.335938 13.125 12.667969 C 12.804688 12.960938 12.773438 13.015625 12.773438 13.226562 C 12.773438 13.398438 12.859375 13.640625 13.078125 14.074219 C 13.328125 14.585938 13.460938 14.753906 13.882812 15.175781 C 14.28125 15.570312 14.492188 15.734375 14.882812 15.925781 C 15.15625 16.0625 15.492188 16.1875 15.632812 16.207031 C 15.882812 16.25 15.882812 16.25 16.28125 15.828125 C 16.671875 15.429688 16.699219 15.410156 16.957031 15.410156 C 17.191406 15.410156 17.296875 15.460938 17.882812 15.855469 C 18.785156 16.464844 19.078125 16.722656 19.160156 16.96875 C 19.226562 17.15625 19.210938 17.210938 19.046875 17.546875 C 18.820312 18.011719 18.34375 18.460938 17.917969 18.621094 C 17.632812 18.726562 17.589844 18.726562 17.3125 18.648438 C 16.910156 18.53125 15.695312 17.945312 15.078125 17.570312 C 13.023438 16.328125 11.636719 14.6875 10.609375 12.289062 C 10.273438 11.5 10.234375 11.214844 10.4375 10.835938 C 10.6875 10.335938 11.476562 9.726562 11.871094 9.726562 C 11.96875 9.726562 12.125 9.78125 12.203125 9.84375 Z M 15.851562 10.460938 C 17.097656 10.722656 18 11.59375 18.25 12.804688 C 18.410156 13.546875 18.359375 13.828125 18.0625 13.828125 C 17.894531 13.828125 17.8125 13.671875 17.8125 13.347656 C 17.804688 12.199219 16.90625 11.167969 15.703125 10.957031 C 15.492188 10.921875 15.265625 10.882812 15.195312 10.863281 C 14.914062 10.8125 14.988281 10.371094 15.28125 10.371094 C 15.367188 10.371094 15.625 10.414062 15.851562 10.460938 Z M 16.417969 11.820312 C 16.863281 12.058594 17.167969 12.585938 17.167969 13.125 C 17.167969 13.351562 17.085938 13.476562 16.929688 13.476562 C 16.78125 13.476562 16.703125 13.351562 16.640625 13 C 16.605469 12.828125 16.535156 12.621094 16.46875 12.539062 C 16.3125 12.316406 16 12.128906 15.796875 12.128906 C 15.453125 12.128906 15.242188 11.859375 15.429688 11.664062 C 15.539062 11.546875 16.066406 11.625 16.417969 11.820312 Z M 16.417969 11.820312 "/>
    </svg>
  </symbol>
</svg>